<mxfile host="Electron" agent="Mozilla/5.0 (Windows NT 10.0; Win64; x64) AppleWebKit/537.36 (KHTML, like Gecko) draw.io/24.7.5 Chrome/126.0.6478.183 Electron/31.3.0 Safari/537.36" version="24.7.5">
  <diagram name="Página-1" id="4A8GBxdLXKc6nTAPn0Wn">
    <mxGraphModel dx="880" dy="532" grid="1" gridSize="10" guides="1" tooltips="1" connect="1" arrows="1" fold="1" page="1" pageScale="1" pageWidth="850" pageHeight="1100" math="0" shadow="0">
      <root>
        <mxCell id="0" />
        <mxCell id="1" parent="0" />
        <mxCell id="70ds9TVKglG8Nz20Y6MG-3" style="edgeStyle=orthogonalEdgeStyle;rounded=0;orthogonalLoop=1;jettySize=auto;html=1;exitX=0.5;exitY=1;exitDx=0;exitDy=0;exitPerimeter=0;entryX=0.5;entryY=0;entryDx=0;entryDy=0;" edge="1" parent="1" source="70ds9TVKglG8Nz20Y6MG-1" target="70ds9TVKglG8Nz20Y6MG-2">
          <mxGeometry relative="1" as="geometry" />
        </mxCell>
        <mxCell id="70ds9TVKglG8Nz20Y6MG-1" value="INICIO" style="strokeWidth=2;html=1;shape=mxgraph.flowchart.start_1;whiteSpace=wrap;fillColor=#60a917;fontColor=#ffffff;strokeColor=#2D7600;" vertex="1" parent="1">
          <mxGeometry x="170" y="120" width="80" height="40" as="geometry" />
        </mxCell>
        <mxCell id="70ds9TVKglG8Nz20Y6MG-2" value="INICIALIZAR LCD" style="rounded=1;whiteSpace=wrap;html=1;absoluteArcSize=1;arcSize=14;strokeWidth=2;fillColor=#0050ef;fontColor=#ffffff;strokeColor=#001DBC;" vertex="1" parent="1">
          <mxGeometry x="155" y="180" width="110" height="40" as="geometry" />
        </mxCell>
        <mxCell id="70ds9TVKglG8Nz20Y6MG-4" value="CURSOR EN LA POSICIÓN (1,1)" style="rounded=1;whiteSpace=wrap;html=1;absoluteArcSize=1;arcSize=14;strokeWidth=2;fillColor=#0050ef;fontColor=#ffffff;strokeColor=#001DBC;" vertex="1" parent="1">
          <mxGeometry x="155" y="330" width="110" height="40" as="geometry" />
        </mxCell>
        <mxCell id="70ds9TVKglG8Nz20Y6MG-11" style="edgeStyle=orthogonalEdgeStyle;rounded=0;orthogonalLoop=1;jettySize=auto;html=1;exitX=0.5;exitY=1;exitDx=0;exitDy=0;exitPerimeter=0;entryX=0.5;entryY=0;entryDx=0;entryDy=0;" edge="1" parent="1" source="70ds9TVKglG8Nz20Y6MG-5" target="70ds9TVKglG8Nz20Y6MG-8">
          <mxGeometry relative="1" as="geometry" />
        </mxCell>
        <mxCell id="70ds9TVKglG8Nz20Y6MG-5" value="VISUALIZA &quot;HOLA MUNDO&quot;" style="strokeWidth=2;html=1;shape=mxgraph.flowchart.display;whiteSpace=wrap;fillColor=#d80073;strokeColor=#A50040;fontColor=#ffffff;" vertex="1" parent="1">
          <mxGeometry x="145" y="400" width="130" height="60" as="geometry" />
        </mxCell>
        <mxCell id="70ds9TVKglG8Nz20Y6MG-7" style="edgeStyle=orthogonalEdgeStyle;rounded=0;orthogonalLoop=1;jettySize=auto;html=1;exitX=0.5;exitY=1;exitDx=0;exitDy=0;entryX=0.5;entryY=0;entryDx=0;entryDy=0;entryPerimeter=0;" edge="1" parent="1" source="70ds9TVKglG8Nz20Y6MG-4" target="70ds9TVKglG8Nz20Y6MG-5">
          <mxGeometry relative="1" as="geometry" />
        </mxCell>
        <mxCell id="70ds9TVKglG8Nz20Y6MG-17" style="edgeStyle=orthogonalEdgeStyle;rounded=0;orthogonalLoop=1;jettySize=auto;html=1;exitX=0.5;exitY=1;exitDx=0;exitDy=0;entryX=0.5;entryY=0;entryDx=0;entryDy=0;" edge="1" parent="1" source="70ds9TVKglG8Nz20Y6MG-8" target="70ds9TVKglG8Nz20Y6MG-12">
          <mxGeometry relative="1" as="geometry" />
        </mxCell>
        <mxCell id="70ds9TVKglG8Nz20Y6MG-8" value="DELAY DE 1 SEG" style="rounded=1;whiteSpace=wrap;html=1;absoluteArcSize=1;arcSize=14;strokeWidth=2;fillColor=#0050ef;fontColor=#ffffff;strokeColor=#001DBC;" vertex="1" parent="1">
          <mxGeometry x="155" y="490" width="110" height="40" as="geometry" />
        </mxCell>
        <mxCell id="70ds9TVKglG8Nz20Y6MG-37" style="edgeStyle=orthogonalEdgeStyle;rounded=0;orthogonalLoop=1;jettySize=auto;html=1;exitX=0.5;exitY=1;exitDx=0;exitDy=0;entryX=0.5;entryY=0;entryDx=0;entryDy=0;" edge="1" parent="1" source="70ds9TVKglG8Nz20Y6MG-12" target="70ds9TVKglG8Nz20Y6MG-18">
          <mxGeometry relative="1" as="geometry" />
        </mxCell>
        <mxCell id="70ds9TVKglG8Nz20Y6MG-12" value="LIMPIAR PANTALLA" style="rounded=1;whiteSpace=wrap;html=1;absoluteArcSize=1;arcSize=14;strokeWidth=2;fillColor=#0050ef;fontColor=#ffffff;strokeColor=#001DBC;" vertex="1" parent="1">
          <mxGeometry x="155" y="560" width="110" height="40" as="geometry" />
        </mxCell>
        <mxCell id="70ds9TVKglG8Nz20Y6MG-18" value="CURSOR EN LA POSICIÓN (1,1)" style="rounded=1;whiteSpace=wrap;html=1;absoluteArcSize=1;arcSize=14;strokeWidth=2;" vertex="1" parent="1">
          <mxGeometry x="155" y="630" width="110" height="40" as="geometry" />
        </mxCell>
        <mxCell id="70ds9TVKglG8Nz20Y6MG-19" style="edgeStyle=orthogonalEdgeStyle;rounded=0;orthogonalLoop=1;jettySize=auto;html=1;exitX=0.5;exitY=1;exitDx=0;exitDy=0;exitPerimeter=0;entryX=0.5;entryY=0;entryDx=0;entryDy=0;" edge="1" parent="1" source="70ds9TVKglG8Nz20Y6MG-20" target="70ds9TVKglG8Nz20Y6MG-23">
          <mxGeometry relative="1" as="geometry" />
        </mxCell>
        <mxCell id="70ds9TVKglG8Nz20Y6MG-20" value="VISUALIZA &quot;NOMBRE&quot;" style="strokeWidth=2;html=1;shape=mxgraph.flowchart.display;whiteSpace=wrap;" vertex="1" parent="1">
          <mxGeometry x="145" y="700" width="130" height="60" as="geometry" />
        </mxCell>
        <mxCell id="70ds9TVKglG8Nz20Y6MG-21" style="edgeStyle=orthogonalEdgeStyle;rounded=0;orthogonalLoop=1;jettySize=auto;html=1;exitX=0.5;exitY=1;exitDx=0;exitDy=0;entryX=0.5;entryY=0;entryDx=0;entryDy=0;entryPerimeter=0;" edge="1" parent="1" source="70ds9TVKglG8Nz20Y6MG-18" target="70ds9TVKglG8Nz20Y6MG-20">
          <mxGeometry relative="1" as="geometry" />
        </mxCell>
        <mxCell id="70ds9TVKglG8Nz20Y6MG-22" style="edgeStyle=orthogonalEdgeStyle;rounded=0;orthogonalLoop=1;jettySize=auto;html=1;exitX=0.5;exitY=1;exitDx=0;exitDy=0;entryX=0.5;entryY=0;entryDx=0;entryDy=0;" edge="1" parent="1" source="70ds9TVKglG8Nz20Y6MG-23" target="70ds9TVKglG8Nz20Y6MG-24">
          <mxGeometry relative="1" as="geometry" />
        </mxCell>
        <mxCell id="70ds9TVKglG8Nz20Y6MG-23" value="DELAY DE 1 SEG" style="rounded=1;whiteSpace=wrap;html=1;absoluteArcSize=1;arcSize=14;strokeWidth=2;" vertex="1" parent="1">
          <mxGeometry x="155" y="790" width="110" height="40" as="geometry" />
        </mxCell>
        <mxCell id="70ds9TVKglG8Nz20Y6MG-35" style="edgeStyle=orthogonalEdgeStyle;rounded=0;orthogonalLoop=1;jettySize=auto;html=1;exitX=0.5;exitY=1;exitDx=0;exitDy=0;entryX=0.5;entryY=0;entryDx=0;entryDy=0;" edge="1" parent="1" source="70ds9TVKglG8Nz20Y6MG-24" target="70ds9TVKglG8Nz20Y6MG-34">
          <mxGeometry relative="1" as="geometry" />
        </mxCell>
        <mxCell id="70ds9TVKglG8Nz20Y6MG-24" value="LIMPIAR PANTALLA" style="rounded=1;whiteSpace=wrap;html=1;absoluteArcSize=1;arcSize=14;strokeWidth=2;" vertex="1" parent="1">
          <mxGeometry x="155" y="860" width="110" height="40" as="geometry" />
        </mxCell>
        <mxCell id="70ds9TVKglG8Nz20Y6MG-27" style="edgeStyle=orthogonalEdgeStyle;rounded=0;orthogonalLoop=1;jettySize=auto;html=1;exitX=0.5;exitY=1;exitDx=0;exitDy=0;exitPerimeter=0;entryX=0.5;entryY=0;entryDx=0;entryDy=0;" edge="1" parent="1" source="70ds9TVKglG8Nz20Y6MG-25" target="70ds9TVKglG8Nz20Y6MG-4">
          <mxGeometry relative="1" as="geometry" />
        </mxCell>
        <mxCell id="70ds9TVKglG8Nz20Y6MG-28" value="SI" style="edgeLabel;html=1;align=center;verticalAlign=middle;resizable=0;points=[];" vertex="1" connectable="0" parent="70ds9TVKglG8Nz20Y6MG-27">
          <mxGeometry x="-0.6" y="-1" relative="1" as="geometry">
            <mxPoint as="offset" />
          </mxGeometry>
        </mxCell>
        <mxCell id="70ds9TVKglG8Nz20Y6MG-25" value="TRUE" style="strokeWidth=2;html=1;shape=mxgraph.flowchart.decision;whiteSpace=wrap;fillColor=#e51400;fontColor=#ffffff;strokeColor=#B20000;" vertex="1" parent="1">
          <mxGeometry x="160" y="250" width="100" height="60" as="geometry" />
        </mxCell>
        <mxCell id="70ds9TVKglG8Nz20Y6MG-26" style="edgeStyle=orthogonalEdgeStyle;rounded=0;orthogonalLoop=1;jettySize=auto;html=1;exitX=0.5;exitY=1;exitDx=0;exitDy=0;entryX=0.5;entryY=0;entryDx=0;entryDy=0;entryPerimeter=0;" edge="1" parent="1" source="70ds9TVKglG8Nz20Y6MG-2" target="70ds9TVKglG8Nz20Y6MG-25">
          <mxGeometry relative="1" as="geometry" />
        </mxCell>
        <mxCell id="70ds9TVKglG8Nz20Y6MG-29" value="INICIO" style="strokeWidth=2;html=1;shape=mxgraph.flowchart.start_1;whiteSpace=wrap;fillColor=#60a917;fontColor=#ffffff;strokeColor=#2D7600;" vertex="1" parent="1">
          <mxGeometry x="50" y="310" width="80" height="40" as="geometry" />
        </mxCell>
        <mxCell id="70ds9TVKglG8Nz20Y6MG-30" style="edgeStyle=orthogonalEdgeStyle;rounded=0;orthogonalLoop=1;jettySize=auto;html=1;exitX=0;exitY=0.5;exitDx=0;exitDy=0;exitPerimeter=0;entryX=0.5;entryY=0;entryDx=0;entryDy=0;entryPerimeter=0;" edge="1" parent="1" source="70ds9TVKglG8Nz20Y6MG-25" target="70ds9TVKglG8Nz20Y6MG-29">
          <mxGeometry relative="1" as="geometry" />
        </mxCell>
        <mxCell id="70ds9TVKglG8Nz20Y6MG-31" value="NO" style="edgeLabel;html=1;align=center;verticalAlign=middle;resizable=0;points=[];" vertex="1" connectable="0" parent="70ds9TVKglG8Nz20Y6MG-30">
          <mxGeometry x="-0.38" y="1" relative="1" as="geometry">
            <mxPoint as="offset" />
          </mxGeometry>
        </mxCell>
        <mxCell id="70ds9TVKglG8Nz20Y6MG-34" value="A" style="ellipse;whiteSpace=wrap;html=1;aspect=fixed;fillColor=#e3c800;fontColor=#000000;strokeColor=#B09500;" vertex="1" parent="1">
          <mxGeometry x="185" y="920" width="50" height="50" as="geometry" />
        </mxCell>
        <mxCell id="70ds9TVKglG8Nz20Y6MG-52" style="edgeStyle=orthogonalEdgeStyle;rounded=0;orthogonalLoop=1;jettySize=auto;html=1;exitX=0.5;exitY=1;exitDx=0;exitDy=0;entryX=0.5;entryY=0;entryDx=0;entryDy=0;" edge="1" parent="1" source="70ds9TVKglG8Nz20Y6MG-36" target="70ds9TVKglG8Nz20Y6MG-45">
          <mxGeometry relative="1" as="geometry" />
        </mxCell>
        <mxCell id="70ds9TVKglG8Nz20Y6MG-36" value="A" style="ellipse;whiteSpace=wrap;html=1;aspect=fixed;fillColor=#e3c800;fontColor=#000000;strokeColor=#B09500;" vertex="1" parent="1">
          <mxGeometry x="415" y="140" width="50" height="50" as="geometry" />
        </mxCell>
        <mxCell id="70ds9TVKglG8Nz20Y6MG-38" value="CURSOR EN LA POSICIÓN (1,1)" style="rounded=1;whiteSpace=wrap;html=1;absoluteArcSize=1;arcSize=14;strokeWidth=2;fillColor=#0050ef;fontColor=#ffffff;strokeColor=#001DBC;" vertex="1" parent="1">
          <mxGeometry x="155" y="630" width="110" height="40" as="geometry" />
        </mxCell>
        <mxCell id="70ds9TVKglG8Nz20Y6MG-39" style="edgeStyle=orthogonalEdgeStyle;rounded=0;orthogonalLoop=1;jettySize=auto;html=1;exitX=0.5;exitY=1;exitDx=0;exitDy=0;exitPerimeter=0;entryX=0.5;entryY=0;entryDx=0;entryDy=0;" edge="1" parent="1" source="70ds9TVKglG8Nz20Y6MG-40" target="70ds9TVKglG8Nz20Y6MG-43">
          <mxGeometry relative="1" as="geometry" />
        </mxCell>
        <mxCell id="70ds9TVKglG8Nz20Y6MG-40" value="VISUALIZA &quot;NOMBRE&quot;" style="strokeWidth=2;html=1;shape=mxgraph.flowchart.display;whiteSpace=wrap;fillColor=#d80073;fontColor=#ffffff;strokeColor=#A50040;" vertex="1" parent="1">
          <mxGeometry x="145" y="700" width="130" height="60" as="geometry" />
        </mxCell>
        <mxCell id="70ds9TVKglG8Nz20Y6MG-41" style="edgeStyle=orthogonalEdgeStyle;rounded=0;orthogonalLoop=1;jettySize=auto;html=1;exitX=0.5;exitY=1;exitDx=0;exitDy=0;entryX=0.5;entryY=0;entryDx=0;entryDy=0;entryPerimeter=0;" edge="1" parent="1" source="70ds9TVKglG8Nz20Y6MG-38" target="70ds9TVKglG8Nz20Y6MG-40">
          <mxGeometry relative="1" as="geometry" />
        </mxCell>
        <mxCell id="70ds9TVKglG8Nz20Y6MG-42" style="edgeStyle=orthogonalEdgeStyle;rounded=0;orthogonalLoop=1;jettySize=auto;html=1;exitX=0.5;exitY=1;exitDx=0;exitDy=0;entryX=0.5;entryY=0;entryDx=0;entryDy=0;" edge="1" parent="1" source="70ds9TVKglG8Nz20Y6MG-43" target="70ds9TVKglG8Nz20Y6MG-44">
          <mxGeometry relative="1" as="geometry" />
        </mxCell>
        <mxCell id="70ds9TVKglG8Nz20Y6MG-43" value="DELAY DE 1 SEG" style="rounded=1;whiteSpace=wrap;html=1;absoluteArcSize=1;arcSize=14;strokeWidth=2;fillColor=#0050ef;fontColor=#ffffff;strokeColor=#001DBC;" vertex="1" parent="1">
          <mxGeometry x="155" y="790" width="110" height="40" as="geometry" />
        </mxCell>
        <mxCell id="70ds9TVKglG8Nz20Y6MG-44" value="LIMPIAR PANTALLA" style="rounded=1;whiteSpace=wrap;html=1;absoluteArcSize=1;arcSize=14;strokeWidth=2;fillColor=#0050ef;fontColor=#ffffff;strokeColor=#001DBC;" vertex="1" parent="1">
          <mxGeometry x="155" y="860" width="110" height="40" as="geometry" />
        </mxCell>
        <mxCell id="70ds9TVKglG8Nz20Y6MG-45" value="CURSOR EN LA POSICIÓN (1,1)" style="rounded=1;whiteSpace=wrap;html=1;absoluteArcSize=1;arcSize=14;strokeWidth=2;fillColor=#0050ef;fontColor=#ffffff;strokeColor=#001DBC;" vertex="1" parent="1">
          <mxGeometry x="385" y="220" width="110" height="40" as="geometry" />
        </mxCell>
        <mxCell id="70ds9TVKglG8Nz20Y6MG-46" style="edgeStyle=orthogonalEdgeStyle;rounded=0;orthogonalLoop=1;jettySize=auto;html=1;exitX=0.5;exitY=1;exitDx=0;exitDy=0;exitPerimeter=0;entryX=0.5;entryY=0;entryDx=0;entryDy=0;" edge="1" parent="1" source="70ds9TVKglG8Nz20Y6MG-47" target="70ds9TVKglG8Nz20Y6MG-50">
          <mxGeometry relative="1" as="geometry" />
        </mxCell>
        <mxCell id="70ds9TVKglG8Nz20Y6MG-47" value="VISUALIZA &quot;SIGNO ZODIACAL&quot;" style="strokeWidth=2;html=1;shape=mxgraph.flowchart.display;whiteSpace=wrap;fillColor=#d80073;fontColor=#ffffff;strokeColor=#A50040;" vertex="1" parent="1">
          <mxGeometry x="375" y="290" width="130" height="60" as="geometry" />
        </mxCell>
        <mxCell id="70ds9TVKglG8Nz20Y6MG-48" style="edgeStyle=orthogonalEdgeStyle;rounded=0;orthogonalLoop=1;jettySize=auto;html=1;exitX=0.5;exitY=1;exitDx=0;exitDy=0;entryX=0.5;entryY=0;entryDx=0;entryDy=0;entryPerimeter=0;" edge="1" parent="1" source="70ds9TVKglG8Nz20Y6MG-45" target="70ds9TVKglG8Nz20Y6MG-47">
          <mxGeometry relative="1" as="geometry" />
        </mxCell>
        <mxCell id="70ds9TVKglG8Nz20Y6MG-49" style="edgeStyle=orthogonalEdgeStyle;rounded=0;orthogonalLoop=1;jettySize=auto;html=1;exitX=0.5;exitY=1;exitDx=0;exitDy=0;entryX=0.5;entryY=0;entryDx=0;entryDy=0;" edge="1" parent="1" source="70ds9TVKglG8Nz20Y6MG-50" target="70ds9TVKglG8Nz20Y6MG-51">
          <mxGeometry relative="1" as="geometry" />
        </mxCell>
        <mxCell id="70ds9TVKglG8Nz20Y6MG-50" value="DELAY DE 1 SEG" style="rounded=1;whiteSpace=wrap;html=1;absoluteArcSize=1;arcSize=14;strokeWidth=2;fillColor=#0050ef;fontColor=#ffffff;strokeColor=#001DBC;" vertex="1" parent="1">
          <mxGeometry x="385" y="380" width="110" height="40" as="geometry" />
        </mxCell>
        <mxCell id="70ds9TVKglG8Nz20Y6MG-60" style="edgeStyle=orthogonalEdgeStyle;rounded=0;orthogonalLoop=1;jettySize=auto;html=1;exitX=0.5;exitY=1;exitDx=0;exitDy=0;entryX=0.5;entryY=0;entryDx=0;entryDy=0;" edge="1" parent="1" source="70ds9TVKglG8Nz20Y6MG-51" target="70ds9TVKglG8Nz20Y6MG-53">
          <mxGeometry relative="1" as="geometry" />
        </mxCell>
        <mxCell id="70ds9TVKglG8Nz20Y6MG-51" value="LIMPIAR PANTALLA" style="rounded=1;whiteSpace=wrap;html=1;absoluteArcSize=1;arcSize=14;strokeWidth=2;fillColor=#0050ef;fontColor=#ffffff;strokeColor=#001DBC;" vertex="1" parent="1">
          <mxGeometry x="385" y="450" width="110" height="40" as="geometry" />
        </mxCell>
        <mxCell id="70ds9TVKglG8Nz20Y6MG-53" value="CURSOR EN LA POSICIÓN (1,1)" style="rounded=1;whiteSpace=wrap;html=1;absoluteArcSize=1;arcSize=14;strokeWidth=2;fillColor=#0050ef;fontColor=#ffffff;strokeColor=#001DBC;" vertex="1" parent="1">
          <mxGeometry x="385" y="515" width="110" height="40" as="geometry" />
        </mxCell>
        <mxCell id="70ds9TVKglG8Nz20Y6MG-54" style="edgeStyle=orthogonalEdgeStyle;rounded=0;orthogonalLoop=1;jettySize=auto;html=1;exitX=0.5;exitY=1;exitDx=0;exitDy=0;exitPerimeter=0;entryX=0.5;entryY=0;entryDx=0;entryDy=0;" edge="1" parent="1" source="70ds9TVKglG8Nz20Y6MG-55" target="70ds9TVKglG8Nz20Y6MG-58">
          <mxGeometry relative="1" as="geometry" />
        </mxCell>
        <mxCell id="70ds9TVKglG8Nz20Y6MG-55" value="VISUALIZA &quot;C.I.&quot;" style="strokeWidth=2;html=1;shape=mxgraph.flowchart.display;whiteSpace=wrap;fillColor=#d80073;fontColor=#ffffff;strokeColor=#A50040;" vertex="1" parent="1">
          <mxGeometry x="375" y="585" width="130" height="60" as="geometry" />
        </mxCell>
        <mxCell id="70ds9TVKglG8Nz20Y6MG-56" style="edgeStyle=orthogonalEdgeStyle;rounded=0;orthogonalLoop=1;jettySize=auto;html=1;exitX=0.5;exitY=1;exitDx=0;exitDy=0;entryX=0.5;entryY=0;entryDx=0;entryDy=0;entryPerimeter=0;" edge="1" parent="1" source="70ds9TVKglG8Nz20Y6MG-53" target="70ds9TVKglG8Nz20Y6MG-55">
          <mxGeometry relative="1" as="geometry" />
        </mxCell>
        <mxCell id="70ds9TVKglG8Nz20Y6MG-57" style="edgeStyle=orthogonalEdgeStyle;rounded=0;orthogonalLoop=1;jettySize=auto;html=1;exitX=0.5;exitY=1;exitDx=0;exitDy=0;entryX=0.5;entryY=0;entryDx=0;entryDy=0;" edge="1" parent="1" source="70ds9TVKglG8Nz20Y6MG-58" target="70ds9TVKglG8Nz20Y6MG-59">
          <mxGeometry relative="1" as="geometry" />
        </mxCell>
        <mxCell id="70ds9TVKglG8Nz20Y6MG-58" value="DELAY DE 1 SEG" style="rounded=1;whiteSpace=wrap;html=1;absoluteArcSize=1;arcSize=14;strokeWidth=2;fillColor=#0050ef;fontColor=#ffffff;strokeColor=#001DBC;" vertex="1" parent="1">
          <mxGeometry x="385" y="675" width="110" height="40" as="geometry" />
        </mxCell>
        <mxCell id="70ds9TVKglG8Nz20Y6MG-62" style="edgeStyle=orthogonalEdgeStyle;rounded=0;orthogonalLoop=1;jettySize=auto;html=1;exitX=0.5;exitY=1;exitDx=0;exitDy=0;entryX=0.5;entryY=0;entryDx=0;entryDy=0;" edge="1" parent="1" source="70ds9TVKglG8Nz20Y6MG-59" target="70ds9TVKglG8Nz20Y6MG-61">
          <mxGeometry relative="1" as="geometry" />
        </mxCell>
        <mxCell id="70ds9TVKglG8Nz20Y6MG-59" value="LIMPIAR PANTALLA" style="rounded=1;whiteSpace=wrap;html=1;absoluteArcSize=1;arcSize=14;strokeWidth=2;fillColor=#0050ef;fontColor=#ffffff;strokeColor=#001DBC;" vertex="1" parent="1">
          <mxGeometry x="385" y="745" width="110" height="40" as="geometry" />
        </mxCell>
        <mxCell id="70ds9TVKglG8Nz20Y6MG-61" value="B" style="ellipse;whiteSpace=wrap;html=1;aspect=fixed;fillColor=#e3c800;fontColor=#000000;strokeColor=#B09500;" vertex="1" parent="1">
          <mxGeometry x="415" y="820" width="50" height="50" as="geometry" />
        </mxCell>
        <mxCell id="70ds9TVKglG8Nz20Y6MG-64" style="edgeStyle=orthogonalEdgeStyle;rounded=0;orthogonalLoop=1;jettySize=auto;html=1;exitX=0;exitY=0.5;exitDx=0;exitDy=0;" edge="1" parent="1" source="70ds9TVKglG8Nz20Y6MG-63">
          <mxGeometry relative="1" as="geometry">
            <mxPoint x="210" y="240" as="targetPoint" />
          </mxGeometry>
        </mxCell>
        <mxCell id="70ds9TVKglG8Nz20Y6MG-63" value="B" style="ellipse;whiteSpace=wrap;html=1;aspect=fixed;fillColor=#e3c800;fontColor=#000000;strokeColor=#B09500;" vertex="1" parent="1">
          <mxGeometry x="275" y="215" width="50" height="50" as="geometry" />
        </mxCell>
      </root>
    </mxGraphModel>
  </diagram>
</mxfile>
